<?xml version="1.0" encoding="utf-8"?>
<!-- Generator: Adobe Illustrator 27.3.1, SVG Export Plug-In . SVG Version: 6.00 Build 0)  -->
<svg version="1.1" id="Layer_1" xmlns="http://www.w3.org/2000/svg" xmlns:xlink="http://www.w3.org/1999/xlink" x="0px" y="0px"
	 viewBox="0 0 68 69" style="enable-background:new 0 0 68 69;" xml:space="preserve">
<style type="text/css">
	.st0{fill:#DFF4F8;}
	.st1{fill:none;stroke:#002140;stroke-width:2;stroke-linecap:round;stroke-linejoin:round;}
	.st2{fill:none;stroke:#002140;stroke-linecap:round;stroke-linejoin:round;}
	.st3{fill:#02AB68;}
</style>
<path class="st0" d="M20.4,54.5l3.4-1.6l3.3,2l3.7-1.9l3.7,2l3-1.7l3.7,1.7l3-2.1l3.3,1.7c0,0-0.7-6.2-0.7-6.8
	c0-0.6,1.6-17.9,1.4-21.8c-0.2-3.9-1.4-11.3-1.4-11.3L43,16.7l-4-1.9l-2.8,1.7l-4.2-1.9l-2.6,1.9l-3.9-2l-2.6,2.3l-3.7-1.7
	c0,0,1.9,6.3,1.4,13.9C19.9,36.3,18.6,50.5,20.4,54.5L20.4,54.5z"/>
<path class="st1" d="M21.1,7.4h-7.3"/>
<path class="st1" d="M13.7,7.5v7.3"/>
<path class="st1" d="M45.7,7.4H53"/>
<path class="st1" d="M53,7.5v7.3"/>
<path class="st1" d="M21.1,61.9h-7.3"/>
<path class="st1" d="M13.7,61.8v-7.3"/>
<path class="st1" d="M45.7,61.9H53"/>
<path class="st1" d="M53,61.8v-7.3"/>
<path class="st2" d="M19.1,14.7c4.1,8.1-1.8,33.4,1.1,40.3"/>
<path class="st2" d="M46.6,14.7c4.1,8.1-1.8,33.4,1.1,40.3"/>
<path class="st2" d="M20.2,55l3.6-2.3l3.6,2.3l3.3-2.4l3.6,2.5l3.1-2.4l3.6,2.3l2.9-2.5l3.7,2.4"/>
<path class="st2" d="M46.6,14.7l-3.7,2l-3.6-2.3l-3.3,2.4l-3.6-2.5l-3.1,2.4l-3.6-2.3l-2.9,2.5L19,14.4"/>
<path class="st2" d="M24.5,22.1h1.7"/>
<path class="st2" d="M29.4,22.1h11.2"/>
<path class="st2" d="M42.1,22.1h1.7"/>
<path class="st2" d="M24.1,48.3h1.7"/>
<path class="st2" d="M28.9,48.3h11.2"/>
<path class="st2" d="M41.7,48.3h1.7"/>
<path class="st2" d="M25.1,28.4h16.3"/>
<path class="st2" d="M25.1,35.1h16.3"/>
<path class="st2" d="M25.5,42.2h7.6"/>
<path class="st3" d="M58.6,33.5H9v4.1h49.6V33.5z"/>
<path class="st2" d="M58.2,33.6H9.6c-0.4,0-0.8,0.3-0.8,0.8V37c0,0.4,0.3,0.8,0.8,0.8h48.6c0.4,0,0.8-0.3,0.8-0.8v-2.6
	C59,33.9,58.7,33.6,58.2,33.6z"/>
</svg>
