<?xml version="1.0" encoding="utf-8"?>
<!-- Generator: Adobe Illustrator 28.1.0, SVG Export Plug-In . SVG Version: 6.00 Build 0)  -->
<svg version="1.1" id="Layer_1" xmlns="http://www.w3.org/2000/svg" xmlns:xlink="http://www.w3.org/1999/xlink" x="0px" y="0px"
	 viewBox="0 0 68 68" style="enable-background:new 0 0 68 68;" xml:space="preserve">
<style type="text/css">
	.st0{fill:#99F6FF;}
	.st1{fill:none;stroke:#002140;stroke-width:1.1911;stroke-linecap:round;stroke-linejoin:round;}
	.st2{fill:#E5FAFE;}
</style>
<path class="st0" d="M11.328,48.728v0.004l25.906,0.175c0,0-0.703-5.884-0.703-6.5c0-0.615,1.493-17.124,1.318-20.812
	c-0.175-3.688-1.318-10.803-1.318-10.803l-26.434,0.083c0,0,1.846,6.059,1.318,13.261C10.887,31.337,9.569,44.861,11.328,48.728z"/>
<path class="st0" d="M10.059,10.632C12.5,19,8.347,42.558,11.111,49.172L10.059,10.632z"/>
<path class="st1" d="M10.059,10.632C12.5,19,8.347,42.558,11.111,49.172"/>
<path class="st0" d="M36.405,10.632c3.95,7.766-1.711,31.925,1.052,38.54L36.405,10.632z"/>
<path class="st1" d="M36.405,10.632c3.95,7.766-1.711,31.925,1.052,38.54"/>
<path class="st1" d="M15.259,17.751h1.588"/>
<path class="st1" d="M19.9,17.751h10.688"/>
<path class="st1" d="M32.116,17.751h1.588"/>
<path class="st1" d="M14.866,42.784h1.588"/>
<path class="st1" d="M19.507,42.784h10.684"/>
<path class="st1" d="M31.719,42.784h1.588"/>
<path class="st1" d="M15.787,23.746h15.611"/>
<path class="st1" d="M10,10.5h26.344"/>
<path class="st1" d="M11.377,49.134l26.014,0.111"/>
<path class="st1" d="M15.787,30.135h15.611"/>
<path class="st1" d="M16.247,36.92h7.246"/>
<path class="st2" d="M24.954,52.538l-0.001,0.004l25.443,4.884c0,0,0.379-5.914,0.491-6.519c0.112-0.605,4.583-16.567,5.082-20.226
	s0.669-10.863,0.669-10.863l-26.009-4.726c0,0,0.713,6.293-1.116,13.28C27.683,35.358,23.927,48.415,24.954,52.538z"/>
<path class="st1" d="M30.634,14.847c2.472,8.355-7.49,31.082-5.975,38.089"/>
<path class="st1" d="M56.541,19.639c2.472,8.355-7.49,31.082-5.975,38.089"/>
<path class="st1" d="M34.453,22.794l1.562,0.289"/>
<path class="st1" d="M39.017,23.638l10.51,1.944"/>
<path class="st1" d="M51.029,25.86l1.562,0.289"/>
<path class="st1" d="M29.514,47.337l1.562,0.289"/>
<path class="st1" d="M34.076,48.181l10.506,1.943"/>
<path class="st1" d="M46.085,50.402l1.562,0.289"/>
<path class="st1" d="M33.882,28.785l15.351,2.84"/>
<path class="st1" d="M30.601,14.707l25.905,4.792"/>
<path class="st1" d="M24.927,52.946l25.56,4.84"/>
<path class="st1" d="M32.72,35.066l15.351,2.84"/>
<path class="st1" d="M31.938,41.822l7.125,1.318"/>
</svg>
