<?xml version="1.0" encoding="utf-8"?>
<!-- Generator: Adobe Illustrator 28.1.0, SVG Export Plug-In . SVG Version: 6.00 Build 0)  -->
<svg version="1.1" id="Layer_1" xmlns="http://www.w3.org/2000/svg" xmlns:xlink="http://www.w3.org/1999/xlink" x="0px" y="0px"
	 viewBox="0 0 2812 1120" style="enable-background:new 0 0 2812 1120;" xml:space="preserve">
<style type="text/css">
	.st0{fill:url(#SVGID_1_);}
	.st1{opacity:0.5;}
	.st2{clip-path:url(#SVGID_00000136393719524393482110000002456155393840065451_);}
	.st3{fill:none;}
	.st4{opacity:0.15;}
	.st5{fill:#085239;}
	.st6{fill:#002E22;}
	.st7{fill:#008C59;}
	.st8{fill:url(#SVGID_00000114768881369827099860000009665262233346837931_);}
	.st9{opacity:0.3;fill:url(#SVGID_00000159471534658288662460000007615151501860126143_);enable-background:new    ;}
	.st10{opacity:0.5;fill:url(#SVGID_00000000934968170174893280000005770697923681673095_);enable-background:new    ;}
</style>
<linearGradient id="SVGID_1_" gradientUnits="userSpaceOnUse" x1="0" y1="208" x2="2812" y2="208" gradientTransform="matrix(1 0 0 1 0 352)">
	<stop  offset="0" style="stop-color:#011A13"/>
	<stop  offset="1" style="stop-color:#012E22"/>
</linearGradient>
<rect class="st0" width="2812" height="1120"/>
<g class="st1">
	<g>
		<defs>
			<rect id="SVGID_00000176749819630686905060000010796084062332551040_" width="2812" height="1120"/>
		</defs>
		<clipPath id="SVGID_00000075867691011484802470000013994546655623291049_">
			<use xlink:href="#SVGID_00000176749819630686905060000010796084062332551040_"  style="overflow:visible;"/>
		</clipPath>
		<g style="clip-path:url(#SVGID_00000075867691011484802470000013994546655623291049_);">
			<rect class="st3" width="2812" height="1120"/>
			<g class="st4">
				<path class="st5" d="M-12.033-745.261H3120.28c29.64,0,53.78,27.229,53.78,60.659V2336.21c0,33.43-24.14,60.66-53.78,60.66
					H-12.033c-29.642,0-53.786-27.23-53.786-60.66V-684.602C-65.819-718.032-41.675-745.261-12.033-745.261z M3120.28,2383.39
					c23.06,0,41.83-21.16,41.83-47.18V-684.602c0-26.016-18.77-47.179-41.83-47.179H-12.033c-23.068,0-41.834,21.163-41.834,47.179
					V2336.21c0,26.02,18.765,47.18,41.834,47.18H3120.28z"/>
				<path class="st6" d="M678.461,2396.47L3223.9,338.242l-35.34-956.208c0,0-52.91-107.883-317.41-126.934
					C2606.6-763.952,2.468-738.565,2.468-738.565s-164.586,145.941-164.586,247.488V2282.25l252.716,152.32l587.863-38.06V2396.47z"
					/>
				<path class="st5" d="M2234.4-758.649c319.69,0,565.39,1.887,637.1,7.054c264.75,19.051,320.05,125.856,322.28,130.394
					l0.68,1.393v1.573L3230,341.613l-2.63,2.112L680.534,2403.12l-1.713,0.13L89.244,2441.4l-1.474-0.9l-255.942-154.21V-491.031
					c0-103.615,160.083-246.77,166.896-252.791l1.594-1.438H2.35c18.925-0.224,1384.86-13.389,2232.01-13.389H2234.4z
					 M3182.63-615.899c-3.19-5.437-18.41-28.622-57.81-53.335c-41.68-26.105-119.57-59.266-254.07-68.926
					c-258.14-18.602-2779.872,5.482-2866.209,6.335C-12.232-716.592-156.18-582.963-156.18-491.031V2278.2l248.134,149.49
					l584.437-37.83L3217.77,334.873L3182.63-615.899z"/>
				<path class="st5" d="M2567.96,869.983l10.87-5.59L1927.49-747.489l-10.88,5.59L2567.96,869.983z"/>
				<path class="st5" d="M2359.24,1042.47l9.33-8.43L1083.2-774.731l-9.33,8.43L2359.24,1042.47z"/>
				<path class="st5" d="M2099.93,1253.3l6.96-10.96L-79.028-521.944l-6.956,10.962L2099.93,1253.3z"/>
				<path class="st5" d="M1818.38,1482.7l3.67-12.83L-46.731,790.765l-3.666,12.83L1818.38,1482.7z"/>
				<path class="st5" d="M3175.81-153.724l7.14,10.829C3160.6-124.113,245.025,2364.07,215.582,2389.19l-7.212-10.74
					C237.813,2353.29,3153.42-134.897,3175.81-153.724z"/>
				<path class="st5" d="M2709.23-764.312l51.4,1485.154l-11.92,0.539l-50.52-1459.453L-101.557,1634.01l-7.172-10.79
					L2709.23-764.312z"/>
				<path class="st5" d="M-95.776,384.035L1138.73-732.96l-7.48-10.515L-103.256,373.521L-95.776,384.035z"/>
				<path class="st7" d="M1529.01,726.365c-0.18,0-0.37,0-0.56-0.047c-1.71-0.356-2.87-2.207-2.55-4.13
					c0.8-5.055,2-10.181,3.54-15.259c5.49-18.155,11.67-41.887,10.94-64.552c-0.06-1.969,1.3-3.607,3.03-3.678
					c1.7-0.142,3.2,1.471,3.26,3.417c0.78,23.851-5.62,48.39-11.28,67.115c-1.43,4.746-2.55,9.516-3.3,14.239
					c-0.28,1.732-1.6,2.919-3.1,2.919L1529.01,726.365z"/>
				<g>
					<path class="st7" d="M1697.07,277.711c0.75,11.723,0,24.277-1.04,33.58c-3.28,29.737-40.36,50.265-64.98,37.094
						c-10.16-5.435-16.98-13.48-24.58-22.617c-9.61-11.558-15.69-20.267-25.31-31.849c-5.32-6.407-11.83-14.595-18.83-18.677
						c-18.31-10.632-40.22-0.474-59.72,7.262c-78.03,30.971-130.49,51-196.09,74.448c-18.39,6.597-37.35,13.195-52.54,26.271
						c-15.74,13.551-26.45,33.818-29.59,55.391l-0.29,0.047h-0.02c-0.53-4.509-0.72-9.066-0.57-13.598
						c0.82-25.251,12.27-49.909,30.47-65.572c15.19-13.076,34.15-19.674,52.54-26.271c65.6-23.448,118.06-43.501,196.09-74.448
						c19.5-7.736,41.41-17.894,59.72-7.262c7,4.082,13.51,12.27,18.83,18.677c9.62,11.558,15.7,20.268,25.31,31.849
						c7.6,9.137,14.42,17.182,24.58,22.617c24.62,13.171,59.74-7.69,64.98-37.094c0.59-3.298,0.87-6.574,0.87-9.825h0.14
						L1697.07,277.711z"/>
					<path class="st5" d="M1696.9,847.92c-0.26,11.391-4.4,22.427-8.65,32.964c-9.32,23.091-19.55,41.317-30.6,63.483
						c-15.38,30.899-37.81,60.873-69.31,68.233c-14.17,3.3-32.98-0.86-47.1-4.49c-109.53-28.098-185.58-114.364-250.75-214.513
						c-14.27-21.905-30.51-52.732-47.09-72.62c-20.48-24.563-86.2-49.932-134.2-64.931c-19.59-6.123-38.97-13.385-59.23-11.035
						c-25.11,2.895-48,19.507-69.93,33.13c-31.123,19.317-67.233,38.801-101.008,51.807
						c-91.559,35.242-124.87,37.994-187.873,52.352c-2.294,0.522-4.693,1.068-6.945,0.309c-6.775-2.326-6.986-10.323-7.828-18.036
						c-0.862-7.69-9.217-12.27-31.733,8.947c-91.243,74.827-160.686,129.6-254.854,208.936
						c-20.622,17.372-41.623,12.056-47.242-0.213c-1.915-4.153-2.778-8.567-2.967-13.124c-0.4-8.899,1.873-18.274,4.187-27.007
						c15.867-60.066,32.07-120.962,62.099-174.217c47.873-84.89,134.361-153.001,169.166-212.236
						c14.836-25.203,28.367-70.484,48.905-88.283c20.538-17.752,47.642-23.091,71.336-35.361
						c46.927-24.254,77.755-73.925,117.106-110.947c44.317-41.697,99.281-67.067,153.236-91.796
						c103.555-47.44,207.045-94.999,310.645-142.273c79.69-36.381,90.92-43.074,103.21-43.074c15.45,0,28.18,11.51,37.96,24.587
						c14.1,18.914,29.61,7.784,48.91-3.062c15.17-8.544,31.14-15.829,48.23-15.948c25.88-0.19,45.45,20.552,61.95,42.362
						c29.95,39.609,59.89,79.194,89.85,118.779c14.84,19.603,30.5,42.528,30.5,67.067c0,3.251-0.28,6.526-0.87,9.825
						c-5.24,29.404-40.36,50.264-64.98,37.093c-10.16-5.435-16.98-13.48-24.58-22.617c-9.61-11.557-15.69-20.267-25.31-31.848
						c-5.32-6.408-11.83-14.595-18.83-18.677c-18.31-10.632-40.22-0.475-59.73,7.262c-78.02,30.97-130.48,51-196.08,74.447
						c-18.39,6.598-37.35,13.195-52.54,26.272c-18.2,15.663-29.65,40.32-30.47,65.571c-0.15,4.533,0.04,9.09,0.57,13.599h0.02
						c2.35,20.552,11.49,40.226,25.52,54.18c17.78,17.68,41.71,25.678,64.8,33.154c56.79,18.368,114.76,36.974,171.56,55.343
						c23.32,7.547,48.17,15.924,55.26,41.341c1.68,5.981,1.94,12.602,1.3,19.437c-1.26,14.381-6.33,29.736-10.12,42.219
						c-3.51,11.676-5.78,25.963-3.95,38.588c1.03,7.239,3.41,13.907,7.68,19.223c4.9,6.1,11.74,9.873,18.39,13.48
						c50.36,27.292,69.9,33.035,120.24,60.327c10.54,5.72,21.27,15.117,22.03,27.957c0.09,1.352,0.11,2.681,0.07,4.034
						L1696.9,847.92L1696.9,847.92z M1659.1,286.562c5.75-8.354-0.88-19.888-7.26-27.695c-40.42-49.482-79.1-99.58-119.79-148.777
						l-1.54-1.685c-12.31-10.323-27.97-11.391-42.49-5.292c-14.5,6.075-27.94,13.907-41.96,21.216
						c-23.54,12.27-38.89,3.347-52.18-12.293c-18.23-21.406-35.1-13.195-57.31-3.346c-89.43,39.632-190.73,81.306-279.43,122.884
						c-159.653,74.851-163.756,58.096-313.668,215.938l-0.547-0.284c-12.1,13.171-28.913,25.061-45.011,31.278
						c-13.005,5.008-26.241,8.663-37.857,16.755c-19.654,13.717-26.367,40.012-38.909,61.466
						c-7.344,12.554-20.664,30.116-29.671,41.341c-25.462,31.659-49.262,54.371-74.724,86.029
						c-39.667,49.363-78.807,94.976-99.261,147.495c-9.975,25.607-23.421,52.329-29.692,79.312
						c-0.652,2.848-0.232,5.672,0.821,8.378c0.505,1.258,1.094,2.231,1.725,2.919c3.409,3.726,8.438,0.237,11.784-2.35
						c12.079-9.326,27.63-23.067,38.888-33.533c74.704-69.274,140.948-124.309,221.08-183.235
						c8.775-6.432,17.866-13.243,28.934-13.314c8.944-0.071,14.226,2.278,18.14,5.506c12.52,10.276,8.333,24.776,3.093,39.941h0.758
						c16.119-3.346,130.762-14.738,254.854-103.068c10.858-7.737,24.768-16.565,36.843-21.786
						c37.48-16.185,71.53-12.626,115.47,3.085l-0.25,0.854c28.59,10.3,56.92,21.62,84.84,33.961
						c21.02,9.255,42.3,19.413,58.96,36.215c14.65,14.714,27.78,34.696,38.07,53.279c30.62,55.39,66.18,108.075,111.55,149.725
						c41.5,38.09,84.99,72.976,138.42,82.92c13.22,2.444,27.51,3.774,39.4-3.014c7.07-4.034,13.97-13.266,21.5-25.963
						c11.87-20.03,27.63-53.634,27.63-53.634s5.07-9.517,7.7-20.006c2.51-9.944,2.82-20.742-5.38-25.228
						c-13.37-7.285-26.1-15.069-41.46-22.616c-29.9-14.69-58.58-26.817-85.18-43.572c-8.86-5.577-16.37-13.836-21.51-23.471
						c-3.38-6.36-4.9-13.883-5.28-21.763c-0.57-12.316,1.64-25.583,3.77-36.879c2.38-12.531,5.76-22.593,7.66-31.279
						c1.79-8.14,2.21-15.022-0.76-21.525c-7.09-15.497-23.32-16.233-38.36-21.762c-68.24-25.156-165-49.766-213.4-73.736
						c-41.92-20.765-59.7-55.747-65.51-105.584c-0.06-0.475-0.1-0.973-0.15-1.447c-6.48-60.755,26.1-107.412,52.36-121.461
						c26.49-14.168,275.83-114.365,308.83-120.108c24.58-2.516,30.7,8.377,45.31,27.672c13.63,18.036,22.24,26.793,36.84,46.087
						c3.6,4.747,13.79,16.66,19.19,18.44c4.78,1.59,9.62,1.97,13.01-1.424c0.44-0.403,0.84-0.902,1.22-1.447L1659.1,286.562z"/>
					<path class="st7" d="M1696.9,847.92c0.27,6.479-0.19,17.3-0.07,19.697c0.78,12.816-3.82,25.228-8.58,36.999
						c-9.32,23.091-19.55,41.317-30.6,63.483c-15.38,30.899-37.81,60.871-69.31,68.231c-14.17,3.3-32.98-0.86-47.1-4.49
						c-109.53-28.1-185.58-114.362-250.75-214.511c-14.27-21.905-30.51-52.733-47.09-72.62c-20.48-24.563-86.2-49.932-134.2-64.931
						c-19.59-6.123-38.97-13.385-59.23-11.035c-25.11,2.895-48,19.507-69.93,33.129c-31.122,19.318-67.233,38.802-101.007,51.807
						c-91.559,35.243-124.87,37.995-187.874,52.353c-2.293,0.522-4.692,1.068-6.944,0.309c-6.776-2.326-6.986-10.324-7.828-18.037
						c-0.863-7.689-9.217-12.269-31.733,8.947C553.411,872.079,483.968,926.852,389.8,1006.19
						c-20.623,17.37-41.624,12.05-47.242-0.22c-3.388-7.4-2.736-25.033-3.304-36.851h0.358c0.168,4.533,1.052,8.947,2.967,13.1
						c5.618,12.269,26.619,17.585,47.242,0.213c94.168-79.312,163.611-134.085,254.854-208.936
						c22.516-21.217,30.87-16.637,31.733-8.947c0.842,7.713,1.052,15.71,7.828,18.036c2.231,0.759,4.651,0.214,6.944-0.308
						c63.004-14.358,96.315-17.111,187.874-52.353c33.774-13.005,69.885-32.489,101.007-51.807
						c21.929-13.599,44.819-30.235,69.929-33.13c20.26-2.35,39.64,4.912,59.23,11.035c48,14.999,113.72,40.368,134.2,64.931
						c16.58,19.888,32.82,50.715,47.09,72.62c65.15,100.149,141.22,186.416,250.75,214.517c14.12,3.63,32.94,7.78,47.1,4.48
						c31.5-7.35,53.93-37.351,69.31-68.227c11.05-22.166,21.28-40.392,30.6-63.483c4.27-10.513,8.4-21.549,8.65-32.964
						L1696.9,847.92z"/>
					<path class="st7" d="M1651.84,258.867c6.38,7.784,13.01,19.318,7.26,27.695c-0.37,0.546-0.77,1.044-1.22,1.448l-0.1-0.142
						c-1.37-2.184-2.88-4.248-4.4-6.076c-40.42-49.481-82.17-99.034-122.89-148.23h-0.51c-12.33-10.324-27.46-12.792-41.98-6.693
						c-14.5,6.076-27.94,13.907-41.96,21.217c-23.55,12.269-38.89,3.346-52.18-12.294c-18.23-21.406-35.11-13.195-57.31-3.346
						c-89.43,39.633-190.73,81.306-279.43,122.885c-159.653,74.85-163.756,58.096-313.668,215.937l-0.547-0.284
						c-12.1,13.171-28.914,25.061-45.012,31.279c-13.004,5.007-26.241,8.662-37.856,16.754
						c-19.655,13.717-26.368,40.013-38.909,61.466c-7.344,12.555-20.665,30.116-29.671,41.342
						c-25.463,31.658-49.262,54.37-74.725,86.028c-39.666,49.363-78.807,94.976-99.261,147.495
						c-8.438,21.596-19.317,44.023-26.283,66.687l-0.862,0.19c-0.632-0.688-1.221-1.661-1.726-2.919
						c-1.073-2.706-1.473-5.53-0.821-8.378c6.271-26.983,19.697-53.705,29.692-79.312c20.475-52.519,59.595-98.132,99.261-147.495
						c25.463-31.658,49.262-54.37,74.725-86.028c9.006-11.226,22.305-28.787,29.671-41.342
						c12.541-21.453,19.254-47.749,38.909-61.466c11.615-8.092,24.852-11.747,37.856-16.755
						c16.119-6.194,32.933-18.083,45.012-31.278l0.547,0.284c149.912-157.841,153.994-141.087,313.668-215.937
						c88.7-41.579,190-83.276,279.43-122.885c22.2-9.849,39.08-18.06,57.31,3.346c13.32,15.64,28.63,24.563,52.18,12.294
						c14.02-7.31,27.44-15.141,41.96-21.217c14.5-6.099,30.18-5.031,42.49,5.292l1.53,1.685c40.7,49.197,79.36,99.295,119.8,148.777
						L1651.84,258.867z"/>
					<path class="st7" d="M1642.56,842.486c8.23,4.485,7.9,15.283,5.39,25.227l-1.3-0.38c-1.1-1.804-0.51-0.831-2.55-1.946
						c-13.36-7.286-26.09-15.094-41.45-22.617c-29.91-14.69-58.59-26.817-85.21-43.595c-8.84-5.554-16.35-13.812-21.48-23.448
						c-5.92-11.083-6.93-26.247-6.93-44.687h0.09c0.4,7.879,1.89,15.402,5.28,21.762c5.13,9.635,12.67,17.894,21.51,23.471
						c26.59,16.731,55.28,28.882,85.18,43.572c15.36,7.547,28.09,15.331,41.45,22.617L1642.56,842.486z"/>
					<path class="st7" d="M1499.79,641.357c2.98,6.502,2.54,13.385,0.75,21.525h-0.75c-4.59-11.178-21.78-14.857-36.85-20.41
						c-68.22-25.132-165-49.766-213.38-73.736c-41.94-20.741-66.79-58.642-67.55-129.861l0.36-0.048
						c0.04,0.475,0.08,0.973,0.15,1.448c5.81,49.837,23.59,84.818,65.51,105.584c48.39,23.969,145.15,48.579,213.39,73.735
						C1476.47,625.124,1492.69,625.86,1499.79,641.357z"/>
					<path class="st7" d="M1576.64,1017.37c-11.64,0-24.48-2.8-36.09-5.79c-119.3-30.594-197.64-131.431-252.58-215.87
						c-4.72-7.262-9.58-15.331-14.71-23.874c-10.42-17.348-21.17-35.266-32.14-48.414c-23.46-28.17-107.53-56.055-132.74-63.934
						c-2.12-0.664-4.27-1.353-6.39-2.017c-17.6-5.625-34.22-10.917-51.69-8.9c-21.02,2.421-40.65,14.904-59.654,26.984
						c-3.052,1.946-6.061,3.844-9.07,5.719c-25.062,15.568-63.024,37.236-101.512,52.044
						c-72.578,27.933-109.299,35.646-151.785,44.569c-11.447,2.397-23.295,4.889-36.468,7.903c-2.441,0.546-5.471,1.258-8.48,0.237
						c-8.186-2.8-9.112-11.795-9.848-19.033l-0.211-1.97c-0.273-2.325-1.389-2.824-1.746-2.99
						c-1.558-0.688-7.934-1.685-24.831,14.239c-0.064,0.048-0.106,0.095-0.169,0.143c-31.649,25.963-60.794,49.6-89.013,72.477
						c-53.66,43.525-104.332,84.629-165.82,136.436c-11.721,9.873-24.999,13.836-36.447,10.869
						c-7.112-1.851-12.773-6.336-15.488-12.293c-2.02-4.367-3.093-9.16-3.303-14.619c-0.421-9.445,1.915-19.104,4.335-28.194
						c15.74-59.52,32.006-121.081,62.456-175.118c26.683-47.322,65.697-89.921,100.123-127.489
						c27.63-30.163,53.724-58.666,69.085-84.795c5.051-8.591,9.954-19.555,15.13-31.16c10.08-22.545,20.496-45.874,34.49-57.977
						c13.636-11.795,30.176-18.298,46.148-24.587c8.606-3.393,17.529-6.906,25.799-11.177c30.533-15.782,54.775-43.24,78.238-69.796
						c12.163-13.789,24.747-28.028,38.173-40.653c45.137-42.457,100.523-67.827,154.078-92.365
						c31.018-14.216,62.04-28.431,93.05-42.647c71.3-32.703,145.03-66.497,217.61-99.603c16.73-7.642,30.43-13.954,41.77-19.199
						c43.31-19.982,52.32-24.135,62.65-24.135c13.97,0,27.54,8.71,40.36,25.868c10.86,14.595,21.97,9.255,40.65-1.424
						c1.46-0.831,2.95-1.685,4.44-2.516c14.21-7.998,31.23-16.209,49.62-16.328c0.13,0,0.26,0,0.38,0
						c27.32,0,47.67,22.023,63.99,43.619c29.95,39.609,59.89,79.194,89.86,118.779c15.11,19.983,31.25,43.478,31.25,69.393
						c0,3.512-0.32,7.048-0.93,10.537c-2.71,15.165-12.94,29.095-27.4,37.259c-14.14,7.974-29.86,8.852-42.04,2.326
						c-10.96-5.862-18.37-14.785-25.53-23.4c-4.84-5.814-8.85-10.988-12.73-15.995c-3.85-4.96-7.8-10.086-12.58-15.83l-1.16-1.4
						c-5.07-6.123-10.79-13.052-16.81-16.541c-15.8-9.184-34.76-1.566-53.07,5.814l-4.15,1.662
						c-81.75,32.441-133.1,51.925-196.18,74.494l-1.33,0.475c-17.63,6.313-35.86,12.863-50.25,25.251
						c-17.51,15.07-28.43,38.565-29.23,62.89c-0.15,4.153,0.02,8.401,0.51,12.625c0.02,0.143,0.04,0.261,0.06,0.404
						c2.27,19.816,11.19,38.754,24.49,51.973c17.68,17.562,42.05,25.441,63.57,32.394c28.56,9.232,57.41,18.535,86.28,27.838
						c28.54,9.184,57.05,18.369,85.29,27.506c23.29,7.546,49.7,16.09,57.41,43.69c1.68,5.981,2.16,13.005,1.43,20.885
						c-1.16,13.289-5.35,26.935-9.05,38.991l-1.22,3.987c-2.32,7.666-5.89,22.664-3.83,36.856c1.01,7.096,3.32,12.958,6.9,17.419
						c4.57,5.672,11.38,9.398,17.42,12.673c25.11,13.623,42.83,22,59.98,30.093c17.21,8.14,35.01,16.541,60.26,30.234
						c8.48,4.604,22.86,14.738,23.83,30.923c0.08,1.472,0.12,2.919,0.06,4.391c-0.28,12.008-4.57,23.518-8.94,34.316
						c-6.95,17.206-14.38,31.706-22.25,47.037c-2.78,5.411-5.6,10.917-8.48,16.708c-19.93,40.012-43.96,63.553-71.42,69.983
						c-3.87,0.9-8.02,1.28-12.35,1.28L1576.64,1017.37z M1057.9,641.001c15.74,0,30.98,4.865,45.79,9.588
						c2.13,0.688,4.25,1.352,6.38,2.017c32.82,10.252,111.74,37.235,135.64,65.928c11.3,13.574,22.22,31.729,32.76,49.291
						c5.1,8.496,9.92,16.517,14.57,23.661c103.36,158.862,187.3,197.356,248.9,213.134c14.37,3.71,32.55,7.55,45.74,4.47
						c25.61-5.99,48.21-28.365,67.19-66.502c2.91-5.814,5.75-11.368,8.53-16.778c7.78-15.189,15.13-29.523,21.97-46.444
						c4.27-10.537,8.12-20.884,8.37-31.564c0,0,0,0,0-0.023c0.04-1.235,0-2.421-0.06-3.655c-0.76-12.602-13.01-21.074-20.25-24.99
						c-25.1-13.622-42.82-21.976-59.97-30.092c-17.21-8.14-35.04-16.542-60.27-30.235c-6.56-3.56-13.99-7.594-19.38-14.311
						c-4.42-5.505-7.26-12.601-8.46-21.05c-2.27-15.71,1.58-31.991,4.09-40.297l1.22-4.034c3.57-11.676,7.64-24.919,8.73-37.402
						c0.63-6.906,0.23-12.958-1.18-18.013c-6.69-23.945-31.35-31.943-53.13-38.991c-28.22-9.137-56.76-18.322-85.29-27.506
						c-28.85-9.303-57.72-18.582-86.28-27.838c-22.16-7.167-47.26-15.259-66.01-33.889c-14.35-14.239-23.99-34.625-26.54-55.984
						c-0.02-0.142-0.04-0.261-0.06-0.403c-0.55-4.747-0.76-9.517-0.59-14.192c0.86-26.39,12.71-51.926,31.71-68.277
						c15.28-13.148,34.03-19.864,52.19-26.367l1.33-0.474c63.02-22.546,114.3-42.006,195.99-74.424l4.13-1.661
						c18.68-7.5,39.85-16.019,58.1-5.435c6.98,4.082,13.38,11.819,18.54,18.013l1.15,1.4c4.84,5.838,8.86,11.012,12.74,16.019
						c3.85,4.96,7.8,10.086,12.58,15.829c7.07,8.52,13.76,16.565,23.63,21.858c10.46,5.6,24.09,4.746,36.51-2.279
						c12.71-7.19,21.7-19.27,24.03-32.299c0.53-3.014,0.8-6.075,0.8-9.137c0-23.471-15.34-45.731-29.73-64.765
						c-29.95-39.585-59.89-79.17-89.86-118.778c-15.38-20.338-34.44-41.104-59.19-41.104c-0.11,0-0.21,0-0.32,0
						c-17.11,0.119-33.29,7.95-46.84,15.568c-1.49,0.831-2.97,1.685-4.4,2.516c-17.34,9.92-33.71,19.27-48.33-0.332
						c-11.56-15.473-23.51-23.329-35.55-23.329c-9.09,0-17.9,4.058-60.24,23.613c-11.34,5.245-25.07,11.557-41.79,19.199
						c-72.56,33.106-146.3,66.924-217.59,99.603c-31.02,14.216-62.036,28.455-93.054,42.647
						c-53.113,24.325-108.036,49.481-152.416,91.226c-13.194,12.412-25.673,26.532-37.73,40.202
						c-23.842,27.007-48.484,54.916-80.07,71.244c-8.543,4.414-17.592,7.973-26.346,11.415
						c-16.224,6.384-31.544,12.411-44.38,23.518s-22.937,33.7-32.68,55.509c-5.282,11.819-10.269,22.973-15.509,31.896
						c-15.74,26.77-42.065,55.533-69.948,85.981c-34.174,37.307-72.893,79.574-99.176,126.208
						c-29.987,53.207-46.127,114.269-61.741,173.339c-2.252,8.496-4.44,17.466-4.061,25.82c0.168,4.414,1.031,8.211,2.609,11.676
						c1.873,4.106,5.997,7.238,11.3,8.639c9.638,2.515,21.022-0.997,31.249-9.636c61.552-51.83,112.245-92.958,165.905-136.506
						c28.177-22.854,57.301-46.468,88.886-72.383c13.931-13.124,24.39-18.274,31.102-15.331c3.157,1.4,5.24,4.58,5.703,8.733
						l0.21,2.041c0.758,7.405,1.389,11.653,5.409,13.029c1.473,0.499,3.472,0.048,5.387-0.379
						c13.236-3.014,25.104-5.506,36.573-7.927c42.254-8.876,78.743-16.541,150.9-44.308c38.047-14.642,75.651-36.12,100.503-51.546
						c2.988-1.851,5.997-3.773,9.027-5.695c19.548-12.436,39.798-25.275,62.098-27.862c2.76-0.308,5.51-0.474,8.25-0.474
						L1057.9,641.001L1057.9,641.001z"/>
					<path class="st7" d="M393.819,927.4c-1.957,0-3.935-0.712-5.682-2.634c-0.947-1.021-1.747-2.374-2.399-4.035
						c-1.452-3.678-1.789-7.286-1.01-10.727c4.524-19.484,12.668-38.73,20.559-57.336c3.157-7.429,6.397-15.118,9.301-22.522
						c18.771-48.152,52.756-90.229,88.76-134.751c3.662-4.532,7.366-9.113,11.048-13.693c12.794-15.901,25.357-29.76,37.499-43.145
						c12.079-13.337,24.579-27.126,37.247-42.86c4.713-5.886,20.769-26.224,29.376-40.914c3.682-6.313,6.944-13.219,10.101-19.911
						c7.533-15.996,15.319-32.513,29.797-42.623c9.364-6.526,19.78-10.276,29.881-13.931c2.883-1.044,5.766-2.088,8.628-3.18
						c15.383-5.909,31.775-17.3,43.854-30.448c1.241-1.376,3.262-1.329,4.461,0.095c1.221,1.424,1.179,3.655-0.084,5.031
						c-12.71,13.86-29.987,25.844-46.19,32.086c-2.904,1.115-5.829,2.183-8.754,3.227c-10.164,3.655-19.78,7.12-28.471,13.195
						c-13.026,9.09-20.076,24.065-27.525,39.918c-3.219,6.835-6.544,13.907-10.395,20.504
						c-8.838,15.118-25.168,35.788-29.966,41.769c-12.794,15.9-25.357,29.76-37.499,43.168
						c-12.078,13.338-24.557,27.102-37.225,42.837c-3.704,4.604-7.386,9.16-11.069,13.717
						c-35.626,44.094-69.295,85.72-87.645,132.804c-2.925,7.499-6.208,15.236-9.364,22.736
						c-7.765,18.321-15.782,37.259-20.159,56.055c-0.421,1.851-0.211,3.844,0.652,6.027c0.421,1.045,0.821,1.591,1.031,1.804
						c1.221,1.329,3.641,0.499,7.807-2.729c15.151-11.7,33.417-28.479,38.656-33.344c75.503-70.033,141.705-124.901,221.354-183.472
						l0.442-0.332c9.027-6.621,18.371-13.48,30.176-13.575c8.459,0.048,14.814,1.899,20.012,6.194
						c15.13,12.412,8.796,30.733,4.166,44.094c-0.631,1.828-2.462,2.73-4.082,2.018s-2.42-2.777-1.789-4.604
						c5.387-15.569,8.397-27.245-1.999-35.765c-2.777-2.278-7.091-4.888-16.266-4.817c-9.954,0.071-18.518,6.336-26.767,12.412
						l-0.442,0.332c-79.438,58.428-145.472,113.154-220.806,182.998c-5.282,4.912-23.758,21.833-39.099,33.723
						c-1.915,1.471-5.955,4.604-10.079,4.604L393.819,927.4L393.819,927.4z"/>
					<path class="st7" d="M743.473,451.097c-0.842,0-1.684-0.38-2.315-1.139c-1.179-1.448-1.115-3.679,0.147-5.031
						C866.26,313.356,889.407,303.056,986.753,259.722c19.757-8.805,42.127-18.749,69.147-31.422
						c56.4-26.437,118.31-53.088,178.17-78.885c33.8-14.548,68.73-29.594,101.33-44.046l1.55-0.689
						c21.43-9.516,39.92-17.751,59.18,4.889c15.42,18.131,29.52,21.478,48.59,11.534c3.66-1.899,7.28-3.845,10.88-5.791
						c10.05-5.411,20.45-10.988,31.29-15.544c16.33-6.859,32.89-4.77,45.45,5.767c1.39,1.163,1.68,3.393,0.65,4.983
						c-1.03,1.59-3.01,1.899-4.42,0.736c-10.81-9.066-25.21-10.822-39.49-4.817c-10.59,4.437-20.86,9.943-30.79,15.283
						c-3.64,1.946-7.28,3.916-10.94,5.838c-27.44,14.31-44.24,0.522-55.81-13.053c-16.33-19.175-30.64-12.815-52.31-3.203
						l-1.56,0.688c-32.62,14.453-67.57,29.499-101.39,44.07c-59.82,25.773-121.67,52.4-178,78.79
						c-27.06,12.697-49.49,22.665-69.254,31.469c-96.462,42.931-119.378,53.136-243.47,183.781c-0.61,0.641-1.389,0.949-2.147,0.949
						L743.473,451.097z"/>
					<path class="st7" d="M1569.99,975.907c-6.4,0-12.78-0.902-18.75-2.017c-56.4-10.49-101.79-48.675-139.92-83.656
						c-40.15-36.856-75.8-84.7-112.24-150.604c-8.42-15.236-21.78-36.713-37.48-52.495c-16.27-16.399-37.59-26.556-58.02-35.551
						c-27.67-12.198-56.14-23.613-84.65-33.865c-1.67-0.593-2.57-2.611-2.05-4.462c0.53-1.851,2.32-2.895,3.98-2.302
						c28.64,10.324,57.26,21.762,85.04,34.032c20.96,9.232,42.86,19.674,59.91,36.88c16.26,16.351,29.98,38.422,38.63,54.038
						c36.05,65.215,71.28,112.513,110.86,148.847c37.5,34.412,82.09,71.956,136.95,82.161c12.24,2.278,26.26,3.725,37.45-2.682
						c5.85-3.346,12.12-10.988,20.31-24.776c11.66-19.651,27.29-52.994,27.46-53.326c0.13-0.261,4.97-9.422,7.45-19.318
						c2.8-11.107,1.54-18.203-3.72-21.074c-4.42-2.421-8.76-4.865-13.16-7.357c-8.83-5.008-17.97-10.181-28.17-15.213
						c-7.81-3.844-15.64-7.546-23.19-11.13c-21.84-10.347-42.49-20.148-62.27-32.584c-9.22-5.814-17.28-14.595-22.68-24.753
						c-3.39-6.36-5.26-14.025-5.73-23.399c-0.57-12.436,1.5-25.512,3.83-37.806c1.45-7.689,3.29-14.452,4.91-20.457
						c1.05-3.892,2.04-7.57,2.77-10.94c1.9-8.639,1.75-14.144-0.5-19.057c-4.82-10.561-14.65-13.409-26.01-16.684
						c-3.45-0.996-7.01-2.041-10.54-3.322c-26.92-9.92-58.69-19.888-89.42-29.523c-48.75-15.283-94.82-29.736-124.28-44.331
						c-40.17-19.912-60.96-53.35-67.36-108.385c-0.06-0.403-0.1-0.901-0.14-1.376c-3.81-35.693,5.66-63.483,14.28-80.547
						c10.13-20.03,25.02-36.737,39.84-44.663c26.56-14.216,277.18-114.745,309.71-120.417c24.67-2.539,32.39,7.784,45.2,24.895
						c0.97,1.282,1.96,2.611,2.99,3.963c6.69,8.853,12.06,15.331,17.76,22.214c5.73,6.906,11.66,14.049,19.09,23.874
						c4.73,6.265,13.76,16.043,17.67,17.348c4.74,1.567,8,1.353,10.02-0.664c0.32-0.309,0.57-0.594,0.8-0.95
						c4.88-7.095-3.32-18.534-7.07-23.115c-18.27-22.331-36.45-45.162-54.02-67.232c-21.36-26.818-43.45-54.537-65.76-81.52
						c-1.2-1.448-1.11-3.679,0.15-5.031c1.28-1.329,3.28-1.258,4.46,0.166c22.35,27.031,44.47,54.773,65.85,81.614
						c17.57,22.047,35.73,44.878,53.97,67.162c10.38,12.697,13.03,24.159,7.43,32.276c-0.53,0.759-1.09,1.447-1.71,2.017
						c-3.68,3.702-8.92,4.414-15.9,2.088c-7.68-2.539-20.56-19.389-20.69-19.555c-7.34-9.683-13.21-16.778-18.9-23.637
						c-5.74-6.93-11.17-13.48-17.95-22.451c-1.03-1.376-2.04-2.705-3.01-3.987c-12.26-16.375-18.41-24.61-39.6-22.426
						c-32.09,5.6-281.33,105.631-307.78,119.775c-24.81,13.266-56.88,58.618-50.56,117.83c0.06,0.593,0.08,0.973,0.14,1.329
						c6.11,52.377,25.74,84.083,63.66,102.878c29.06,14.406,74.89,28.787,123.44,44c30.79,9.659,62.64,19.65,89.69,29.617
						c3.32,1.234,6.79,2.231,10.14,3.204c11.76,3.418,23.92,6.93,30.05,20.315c3.74,8.164,2.61,16.731,1.01,24.017
						c-0.78,3.559-1.79,7.309-2.86,11.296c-1.58,5.838-3.37,12.483-4.76,19.864c-2.23,11.818-4.23,24.349-3.7,35.954
						c0.4,8.187,2,14.785,4.84,20.125c4.86,9.113,12.08,16.992,20.35,22.213c19.48,12.269,39.96,21.976,61.63,32.252
						c7.58,3.583,15.43,7.309,23.27,11.178c10.38,5.102,19.6,10.323,28.5,15.378c4.37,2.468,8.69,4.913,13.07,7.31
						c5.78,3.156,11.72,10.845,7.04,29.403c-2.71,10.822-7.8,20.481-8.03,20.885c-0.09,0.166-15.87,33.818-27.72,53.777
						c-8.84,14.88-15.84,23.257-22.7,27.173c-7.03,4.01-14.8,5.363-22.58,5.363L1569.99,975.907z"/>
					<path class="st7" d="M713.001,738.777c-1.494,0-2.819-1.187-3.093-2.919c-0.316-1.923,0.821-3.797,2.525-4.153
						c1.579-0.333,3.977-0.712,7.26-1.258c89.371-14.429,172.302-48.532,246.479-101.336c7.891-5.624,23.253-15.995,37.398-22.118
						c41.01-17.728,76.66-11.605,117.54,3.014l1.2,0.427c1.67,0.593,2.57,2.611,2.04,4.485c-0.52,1.875-2.31,2.919-3.97,2.302
						l-1.2-0.427c-47.5-16.992-79.29-17.87-113.38-3.156c-13.639,5.909-28.601,15.995-36.282,21.477
						c-74.935,53.326-158.708,87.761-248.962,102.357c-3.093,0.498-5.555,0.901-7.007,1.21c-0.19,0.047-0.379,0.047-0.569,0.047
						L713.001,738.777z"/>
					<path class="st7" d="M1576.64,1041.12c-11.64,0-24.48-2.8-36.09-5.79c-119.3-30.59-197.64-131.426-252.58-215.865
						c-4.72-7.262-9.58-15.33-14.71-23.898c-10.42-17.324-21.17-35.266-32.14-48.413c-23.46-28.17-107.53-56.055-132.74-63.934
						c-2.14-0.665-4.27-1.353-6.42-2.041c-17.59-5.625-34.19-10.917-51.66-8.9c-21.02,2.421-40.65,14.904-59.654,26.983
						c-3.051,1.946-6.06,3.845-9.069,5.72c-25.063,15.568-63.025,37.235-101.513,52.068
						c-72.578,27.933-109.298,35.645-151.784,44.569c-11.448,2.397-23.295,4.888-36.468,7.902c-2.441,0.546-5.471,1.258-8.48,0.238
						c-8.186-2.801-9.112-11.795-9.849-19.033l-0.21-1.97c-0.274-2.326-1.389-2.824-1.747-2.99
						c-1.557-0.689-7.933-1.685-24.831,14.239c-0.063,0.047-0.105,0.095-0.168,0.142c-31.67,25.987-60.857,49.648-89.076,72.549
						c-53.618,43.501-104.269,84.581-165.736,136.364c-11.721,9.87-25,13.84-36.447,10.87c-7.113-1.85-12.773-6.34-15.488-12.29
						c-2.904-6.36-3.156-17.945-3.388-29.146c-0.063-3.228-0.126-6.361-0.273-9.137l-0.106-1.638
						c-0.147-1.97,1.137-3.678,2.883-3.844c1.726-0.167,3.262,1.281,3.409,3.251l0.106,1.78c0.147,2.966,0.21,6.146,0.273,9.469
						c0.19,9.421,0.442,21.145,2.694,26.035c1.872,4.1,5.997,7.24,11.3,8.61c9.638,2.52,21.022-0.99,31.249-9.63
						c61.509-51.809,112.181-92.912,165.842-136.437c28.197-22.878,57.342-46.515,88.97-72.454
						c13.952-13.124,24.41-18.274,31.102-15.331c3.157,1.4,5.24,4.58,5.703,8.734l0.21,2.041c0.758,7.404,1.389,11.652,5.408,13.028
						c1.473,0.499,3.472,0.048,5.387-0.379c13.237-3.014,25.084-5.506,36.573-7.927c42.255-8.876,78.765-16.541,150.901-44.308
						c38.046-14.642,75.651-36.12,100.503-51.546c2.988-1.851,5.997-3.749,9.027-5.695c19.547-12.436,39.797-25.275,62.097-27.862
						c18.67-2.159,36.64,3.584,54.04,9.137c2.13,0.689,4.25,1.353,6.38,2.018c32.82,10.252,111.74,37.211,135.64,65.927
						c11.3,13.575,22.2,31.73,32.77,49.292c5.09,8.496,9.93,16.517,14.58,23.661c103.36,158.862,187.3,197.351,248.9,213.141
						c15.25,3.94,32.64,7.52,45.75,4.46c25.6-5.98,48.21-28.36,67.19-66.499c2.9-5.815,5.74-11.368,8.52-16.803
						c7.78-15.188,15.13-29.522,21.95-46.42c4.79-11.842,9.02-23.423,8.31-35.265c-0.06-1.068-0.02-3.014,0.04-6.361
						c0.09-4.295,0.19-9.635,0.02-13.408c-0.1-2.563-0.29-3.251-0.31-3.323c-0.8-1.756-0.17-3.82,1.39-4.722
						c1.55-0.902,3.49-0.143,4.29,1.614c0.55,1.186,0.8,2.895,0.92,6.075c0.17,4.011,0.07,9.493,0,13.907
						c-0.04,2.539-0.1,4.936-0.04,5.743c0.82,13.48-3.72,25.987-8.88,38.683c-6.94,17.206-14.37,31.683-22.24,47.037
						c-2.78,5.411-5.6,10.941-8.48,16.731c-19.93,40.011-43.96,63.551-71.42,69.991c-3.87,0.9-8.02,1.28-12.33,1.28L1576.64,1041.12
						L1576.64,1041.12z"/>
					<path class="st7" d="M1224.42,442.173c-0.17,0-0.34,0.001-0.51-0.047c-1.73-0.308-2.88-2.16-2.61-4.082
						c3.28-22.617,14.5-43.643,30.79-57.645c15.27-13.148,34.02-19.864,52.16-26.366l1.35-0.475
						c63.02-22.545,114.31-42.006,196-74.424l4.12-1.661c18.67-7.499,39.84-16.019,58.08-5.411c6.99,4.082,13.4,11.819,18.54,18.037
						l1.16,1.376c4.84,5.838,8.86,11.012,12.73,16.019c3.83,4.96,7.8,10.086,12.58,15.83c7.07,8.519,13.76,16.565,23.63,21.857
						c11.22,6.004,26.35,4.675,39.5-3.465c11.83-7.333,19.7-18.843,21.02-30.852c0.74-6.692,1.86-19.887,1.01-32.869
						c-0.12-1.969,1.18-3.654,2.93-3.821c1.74-0.118,3.24,1.329,3.39,3.299c0.88,13.599-0.28,27.316-1.03,34.269
						c-1.58,14.263-10.63,27.791-24.25,36.215c-14.9,9.208-32.21,10.609-45.24,3.655c-10.96-5.862-18.37-14.785-25.52-23.4
						c-4.84-5.814-8.86-10.988-12.74-15.995c-3.85-4.96-7.8-10.086-12.58-15.829l-1.16-1.401c-5.07-6.122-10.79-13.052-16.81-16.565
						c-15.8-9.184-34.74-1.566-53.07,5.791l-4.17,1.661c-81.75,32.442-133.1,51.926-196.18,74.495l-1.35,0.475
						c-17.64,6.313-35.84,12.839-50.25,25.227c-15.01,12.91-25.36,32.299-28.39,53.136c-0.25,1.756-1.6,2.99-3.11,2.99
						L1224.42,442.173z"/>
					<path class="st7" d="M391.209,925.596c-0.336,0-0.694-0.071-1.031-0.19c-1.641-0.641-2.525-2.682-1.957-4.533
						c4.63-15.117,10.985-30.116,17.15-44.616c3.115-7.381,6.355-14.999,9.217-22.356c18.771-48.152,52.777-90.229,88.782-134.75
						c3.661-4.533,7.344-9.09,11.047-13.694c12.794-15.9,25.357-29.76,37.499-43.168c12.079-13.338,24.558-27.102,37.226-42.86
						c4.713-5.886,20.769-26.2,29.376-40.914c3.683-6.313,6.944-13.219,10.101-19.912c7.533-15.995,15.319-32.512,29.797-42.622
						c9.364-6.527,19.781-10.276,29.86-13.907c2.883-1.045,5.766-2.089,8.649-3.18c15.383-5.91,31.775-17.301,43.854-30.449
						c1.263-1.376,3.241-1.329,4.461,0.095c1.221,1.424,1.179,3.655-0.084,5.032c-12.71,13.859-29.987,25.844-46.19,32.085
						c-2.925,1.116-5.85,2.184-8.775,3.228c-10.164,3.655-19.759,7.119-28.45,13.195c-13.026,9.089-20.075,24.064-27.525,39.917
						c-3.219,6.835-6.544,13.907-10.395,20.505c-8.859,15.117-25.168,35.788-29.966,41.768
						c-12.794,15.901-25.357,29.76-37.499,43.169c-12.078,13.337-24.557,27.102-37.225,42.86c-3.683,4.604-7.386,9.16-11.048,13.693
						c-35.647,44.094-69.295,85.744-87.666,132.828c-2.904,7.452-6.165,15.118-9.301,22.546
						c-6.081,14.334-12.352,29.143-16.877,43.88c-0.441,1.472-1.683,2.397-2.988,2.397L391.209,925.596z"/>
					<path class="st7" d="M743.473,474.828c-0.842,0-1.684-0.38-2.315-1.139c-1.179-1.448-1.115-3.679,0.147-5.031
						C866.26,337.087,889.386,326.811,986.753,283.477c19.757-8.805,42.147-18.749,69.167-31.422
						c56.4-26.437,118.29-53.088,178.15-78.861c33.8-14.548,68.75-29.618,101.35-44.047l1.56-0.688
						c21.42-9.517,39.91-17.752,59.19,4.889c15.42,18.131,29.5,21.477,48.59,11.534c3.66-1.923,7.28-3.869,10.9-5.815
						c10.06-5.411,20.45-10.988,31.27-15.52c15.4-6.479,31.77-3.869,44.95,7.167c1.41,1.162,1.68,3.393,0.65,4.983
						s-3.01,1.899-4.42,0.736c-11.59-9.706-25.44-11.913-38.99-6.218c-10.57,4.438-20.84,9.944-30.77,15.284
						c-3.64,1.946-7.28,3.915-10.96,5.838c-27.44,14.31-44.23,0.522-55.81-13.077c-16.33-19.175-30.64-12.815-52.31-3.18
						l-1.56,0.688c-32.62,14.453-67.59,29.523-101.41,44.071c-59.8,25.749-121.67,52.4-177.98,78.79
						c-27.08,12.697-49.49,22.664-69.273,31.469c-96.462,42.931-119.378,53.136-243.449,183.781
						c-0.61,0.641-1.389,0.949-2.146,0.949H743.473z"/>
					<path class="st7" d="M1657.78,291.428c-0.99,0-1.96-0.522-2.59-1.495c-1.2-1.922-2.59-3.845-4.12-5.719
						c-25.53-31.256-52-63.009-77.59-93.718c-15.15-18.203-30.3-36.358-45.29-54.489c-1.17-1.448-1.11-3.679,0.15-5.031
						c1.28-1.353,3.28-1.258,4.46,0.166c14.99,18.107,30.14,36.286,45.29,54.465c25.59,30.733,52.06,62.51,77.6,93.765
						c1.73,2.089,3.29,4.272,4.66,6.432c1.01,1.613,0.67,3.821-0.76,4.96C1659.04,291.215,1658.39,291.428,1657.78,291.428z"/>
					<path class="st7" d="M1499.79,666.441c-1.2,0-2.34-0.759-2.87-2.064c-3.15-7.69-15.06-11.7-26.59-15.592
						c-2.8-0.95-5.62-1.899-8.38-2.92c-26.85-9.896-58.56-19.84-89.24-29.475c-48.82-15.307-94.95-29.783-124.43-44.402
						c-46.66-23.092-68.71-65.382-69.45-133.09c0-1.97,1.37-3.583,3.12-3.607c1.79-0.071,3.18,1.542,3.2,3.512
						c0.69,64.575,21.55,104.825,65.65,126.658c29.08,14.429,74.98,28.811,123.59,44.071c30.74,9.635,62.52,19.602,89.52,29.57
						c2.69,0.997,5.47,1.922,8.2,2.848c13.45,4.533,26.16,8.828,30.52,19.413c0.73,1.779,0.04,3.892-1.54,4.722
						c-0.42,0.214-0.88,0.332-1.33,0.332L1499.79,666.441z"/>
					<path class="st7" d="M1646.67,870.916c-1.01,0-2-0.546-2.61-1.567c0,0-0.06-0.118-0.09-0.166
						c-0.31-0.142-0.71-0.308-1.22-0.593c-4.42-2.42-8.77-4.865-13.15-7.381c-8.84-5.007-17.97-10.181-28.18-15.188
						c-7.8-3.845-15.61-7.523-23.14-11.107c-21.87-10.371-42.53-20.172-62.35-32.631c-9.2-5.791-17.24-14.572-22.67-24.729
						c-6.12-11.51-7.36-26.319-7.36-46.515c0-1.97,1.41-3.56,3.15-3.56c1.75,0,3.16,1.59,3.16,3.56c0,18.44,1.09,32.798,6.46,42.836
						c4.86,9.114,12.08,16.993,20.33,22.19c19.51,12.293,40,22,61.72,32.299c7.57,3.584,15.38,7.286,23.23,11.154
						c10.37,5.079,19.59,10.3,28.49,15.355c4.38,2.468,8.69,4.936,13.07,7.31c0.48,0.261,0.74,0.355,0.9,0.403
						c1.54,0.522,2.07,1.4,2.89,2.729c0.99,1.614,0.61,3.845-0.84,4.936c-0.55,0.427-1.16,0.617-1.77,0.617L1646.67,870.916z"/>
					<path class="st7" d="M1567.78,996.769c-40.51,0-99.87-28.478-154.31-75.183c-50.49-43.287-101.16-121.912-141.88-185.087
						c-28.47-44.165-56.06-55.058-88-67.636c-4.63-1.827-9.34-3.678-14.16-5.672l-7.66-3.18
						c-37.33-15.568-83.79-34.957-115.4-32.632c-17.53,1.282-41.94,15.521-72.853,33.581
						c-28.304,16.518-63.509,37.093-105.869,55.011c-50.924,21.573-163.064,51-173.291,43.192
						c-5.218-3.987-5.218-12.364-5.218-20.433c0-5.767,0-12.293-2.273-13.788c-4.251-2.777-12.942,3.916-22.158,10.988
						c-3.157,2.42-6.419,4.936-9.891,7.38c-3.325,2.35-11.574,8.473-23.968,17.966c-1.431,1.115-3.409,0.688-4.377-0.95
						c-0.989-1.637-0.61-3.844,0.842-4.936c12.436-9.54,20.622-15.616,24.157-18.107c3.367-2.397,6.587-4.866,9.701-7.239
						c11.848-9.089,21.191-16.28,28.893-11.249c5.408,3.536,5.408,11.89,5.408,19.935c0,5.933,0,12.673,2.462,14.548
						c7.996,3.726,108.099-18.796,167.525-43.952c41.981-17.775,77.018-38.232,105.174-54.678
						c32.806-19.152,56.496-32.988,75.356-34.364c32.95-2.374,80.11,17.253,117.99,33.058l7.66,3.18
						c4.78,1.994,9.47,3.845,14.06,5.649c32.93,12.981,61.38,24.206,91.03,70.175c40.49,62.795,90.86,140.945,140.59,183.615
						c59.61,51.143,127.37,80.832,164.79,72.241c41.62-9.564,63.51-67.684,63.74-68.277c0.67-1.804,2.52-2.658,4.12-1.923
						c1.62,0.76,2.38,2.848,1.71,4.652c-0.24,0.641-5.85,15.687-17.01,32.204c-14.9,22.071-32.64,36.002-51.3,40.297
						c-4.8,1.092-10,1.638-15.57,1.638L1567.78,996.769z"/>
					<path class="st7" d="M375.321,967.389c-1.747,0-3.157-0.404-4.356-0.95c-5.682-2.658-14.814-13.456-8.712-35.36l1.178-4.296
						c6.945-25.18,25.379-92.057,53.576-148.895c15.467-31.184,80.386-105.892,127.796-160.429
						c23.295-26.793,41.686-47.986,46.695-55.343c5.555-8.187,9.49-17.633,13.657-27.624c6.944-16.636,14.793-35.503,32.133-51.712
						c11.574-10.822,24.662-15.924,38.509-21.311c15.425-6.004,32.911-12.816,51.387-29.025
						c8.607-7.546,21.275-20.504,35.921-35.479c28.935-29.57,64.939-66.379,99.345-92.864
						c38.488-29.665,229.46-113.059,355.82-168.236c44.59-19.484,79.82-34.862,93.77-41.579c1.6-0.759,3.45,0.071,4.14,1.875
						c0.7,1.804-0.06,3.892-1.66,4.676c-14.06,6.763-49.32,22.165-93.98,41.673c-118.43,51.712-316.656,138.287-354.534,167.477
						c-34.026,26.224-69.863,62.842-98.65,92.27c-14.751,15.07-27.483,28.099-36.279,35.812
						c-19.296,16.945-37.309,23.946-53.197,30.14c-13.867,5.411-25.841,10.062-36.531,20.053
						c-16.245,15.189-23.463,32.513-30.449,49.268c-4.314,10.347-8.397,20.125-14.352,28.929c-5.24,7.713-23.758,29.025-47.2,56.008
						C502.19,676.718,437.609,751.047,422.542,781.4c-27.882,56.174-46.169,122.553-53.05,147.519l-1.2,4.319
						c-4.903,17.609,2.021,25.204,5.114,26.651c3.577,1.709,13.257-1.234,39.035-24.634
						c70.811-64.242,135.666-117.449,177.605-150.769c1.431-1.139,3.388-0.736,4.398,0.854c1.01,1.614,0.652,3.821-0.758,4.96
						c-41.876,33.249-106.605,86.361-177.289,150.509c-23.568,21.382-34.658,26.603-41.034,26.603L375.321,967.389z"/>
					<path class="st7" d="M1661,898.826c-0.55,0-1.12-0.166-1.62-0.499c-1.5-0.996-1.98-3.203-1.1-4.888
						c0.09-0.166,8.38-15.853,13.58-31.279c5.89-17.491-6.3-26.485-17.58-32.371c-17.55-9.16-93.72-46.965-118.11-58.618
						c-27.71-13.242-37.29-41.721-26.33-78.173c11.94-39.633,17.41-68.942-21.14-85.175c-21.76-9.16-73.44-24.752-119.02-38.493
						c-38.26-11.534-74.37-22.427-89.71-28.526c-53.07-21.074-78.87-54.228-78.87-101.407c0-70.105,23.08-101.265,95.05-128.248
						c33.84-12.673,73.21-28.313,111.28-43.406c47.34-18.796,88.23-35.005,107.63-41.27c33.42-10.798,46.72-12.673,64.56,8.52
						c3.73,4.414,8.21,10.086,12.95,16.114c11,13.978,24.72,31.373,38.29,44.853c12.27,12.175,24.56,13.172,37.59,3.086
						c5.32-4.13,8.27-9.256,9-15.64c2-17.372-13.02-39.229-19.59-47.796c-17.82-23.329-96.4-120.346-113.5-140.66
						c-19.36-22.973-48.36-14.548-69.3-3.417c-3.45,1.827-6.71,3.655-9.85,5.435c-22.47,12.625-40.23,22.593-64.41-6.194
						c-19.51-23.234-33.17-16.375-47.62-9.113c-2.93,1.471-5.94,2.966-8.9,4.153c-1.64,0.665-3.45-0.332-4.02-2.183
						c-0.57-1.851,0.29-3.892,1.93-4.533c2.74-1.092,5.52-2.468,8.44-3.939c14.35-7.215,32.2-16.162,54.78,10.727
						c20.96,24.966,34.53,17.348,57,4.723c3.18-1.78,6.48-3.655,9.98-5.506c32.24-17.134,59.42-15.355,76.55,4.96
						c17.13,20.338,95.85,117.521,113.72,140.921c8.84,11.557,23.32,33.889,21.06,53.373c-0.96,8.402-4.9,15.331-11.7,20.6
						c-15.31,11.866-30.99,10.608-45.32-3.607c-13.87-13.765-27.72-31.327-38.85-45.447c-4.9-6.218-9.13-11.605-12.79-15.925
						c-15.17-17.989-25.21-17.253-58.25-6.573c-19.21,6.194-61.99,23.162-107.28,41.127c-38.09,15.117-77.48,30.757-111.38,43.454
						c-68.69,25.749-90.72,55.271-90.72,121.484c0,43.762,24.41,74.732,74.66,94.691c15.11,6.004,51.14,16.85,89.25,28.36
						c47.96,14.453,97.53,29.428,119.59,38.707c47.26,19.911,34.87,61.062,24.91,94.145c-9.91,32.94-1.83,57.55,22.81,69.321
						c24.43,11.676,100.74,49.529,118.31,58.713c19.61,10.253,26.62,24.16,20.81,41.365c-5.41,16.019-13.7,31.754-14.06,32.395
						c-0.59,1.115-1.64,1.732-2.71,1.732L1661,898.826L1661,898.826z"/>
				</g>
			</g>
		</g>
	</g>
</g>
<linearGradient id="SVGID_00000093857620797503861720000010401341535865000842_" gradientUnits="userSpaceOnUse" x1="2812" y1="208" x2="1547" y2="208" gradientTransform="matrix(1 0 0 1 0 352)">
	<stop  offset="0" style="stop-color:#002E22"/>
	<stop  offset="1" style="stop-color:#002E22;stop-opacity:0"/>
</linearGradient>
<rect x="1547" style="fill:url(#SVGID_00000093857620797503861720000010401341535865000842_);" width="1265" height="1120"/>
<g>
	
		<linearGradient id="SVGID_00000108290832204856237280000007231938373065558921_" gradientUnits="userSpaceOnUse" x1="7.7826" y1="207" x2="1601" y2="207" gradientTransform="matrix(1 0 0 1 0 352)">
		<stop  offset="0" style="stop-color:#011A13"/>
		<stop  offset="1" style="stop-color:#011A13;stop-opacity:0"/>
	</linearGradient>
	
		<rect style="opacity:0.3;fill:url(#SVGID_00000108290832204856237280000007231938373065558921_);enable-background:new    ;" width="1601" height="1118"/>
	
		<linearGradient id="SVGID_00000037659570497687409090000006191026659428777107_" gradientUnits="userSpaceOnUse" x1="6.091" y1="207" x2="1253" y2="207" gradientTransform="matrix(1 0 0 1 0 352)">
		<stop  offset="0" style="stop-color:#011A13"/>
		<stop  offset="1" style="stop-color:#011A13;stop-opacity:0"/>
	</linearGradient>
	
		<rect style="opacity:0.5;fill:url(#SVGID_00000037659570497687409090000006191026659428777107_);enable-background:new    ;" width="1253" height="1118"/>
</g>
</svg>
